HIERARCHY
ROOT Hips
{
	OFFSET -3.958830 18.904000 13.208200
	CHANNELS 6 Xposition Yposition Zposition Zrotation Yrotation Xrotation 
	JOINT LHipJoint
	{
		OFFSET 0.000000 0.000000 0.000000
		CHANNELS 3 Zrotation Yrotation Xrotation
		JOINT LeftUpLeg
		{
			OFFSET 1.800000 -1.400000 0.085000
			CHANNELS 3 Zrotation Yrotation Xrotation
			JOINT LeftLeg
			{
				OFFSET 2.215000 -6.000000 0.000000
				CHANNELS 3 Zrotation Yrotation Xrotation
				JOINT LeftFoot
				{
					OFFSET 2.500000 -6.900000 0.000000
					CHANNELS 3 Zrotation Yrotation Xrotation
					JOINT LeftToeBase
					{
						OFFSET 0.200000 -0.500000 1.950000
						CHANNELS 3 Zrotation Yrotation Xrotation
						End Site
						{
							OFFSET 0.000000 0.000000 0.000000
						}
					}
				}
			}
		}
	}
	JOINT RHipJoint
	{
		OFFSET 0.000000 0.000000 0.000000
		CHANNELS 3 Zrotation Yrotation Xrotation
		JOINT RightUpLeg
		{
			OFFSET -1.800000 -1.400000 0.085000
			CHANNELS 3 Zrotation Yrotation Xrotation
			JOINT RightLeg
			{
				OFFSET -2.215000 -6.000000 0.000000
				CHANNELS 3 Zrotation Yrotation Xrotation
				JOINT RightFoot
				{
					OFFSET -2.500000 -6.900000 0.000000
					CHANNELS 3 Zrotation Yrotation Xrotation
					JOINT RightToeBase
					{
						OFFSET -0.200000 -0.500000 1.950000
						CHANNELS 3 Zrotation Yrotation Xrotation
						End Site
						{
							OFFSET 0.000000 0.000000 0.000000
						}
					}
				}
			}
		}
	}
	JOINT LowerBack
	{
		OFFSET 0.000000 0.000000 0.000000
		CHANNELS 3 Zrotation Yrotation Xrotation
		JOINT Spine
		{
			OFFSET -0.087000 1.940000 -0.288900
			CHANNELS 3 Zrotation Yrotation Xrotation
			JOINT Spine1
			{
				OFFSET 0.000000 1.950000 0.060000
				CHANNELS 3 Zrotation Yrotation Xrotation
				JOINT Neck
				{
					OFFSET 0.000000 0.000000 0.000000
					CHANNELS 3 Zrotation Yrotation Xrotation
					JOINT Neck1
					{
						OFFSET 0.000000 1.600000 0.340000
						CHANNELS 3 Zrotation Yrotation Xrotation
						JOINT Head
						{
							OFFSET 0.000000 1.667000 -0.240000
							CHANNELS 3 Zrotation Yrotation Xrotation
							End Site
							{
								OFFSET 0.000000 0.000000 0.000000
							}
						}
					}
				}
				JOINT LeftShoulder
				{
					OFFSET 0.000000 0.000000 0.000000
					CHANNELS 3 Zrotation Yrotation Xrotation
					JOINT LeftArm
					{
						OFFSET 2.700000 1.550000 -0.730000
						CHANNELS 3 Zrotation Yrotation Xrotation
						JOINT LeftForeArm
						{
							OFFSET 5.450000 0.000000 0.000000
							CHANNELS 3 Zrotation Yrotation Xrotation
							JOINT LeftHand
							{
								OFFSET 3.450000 0.000000 0.000000
								CHANNELS 3 Zrotation Yrotation Xrotation
								JOINT LeftHandIndex1
								{
									OFFSET 0.750000 0.000000 0.000000
									CHANNELS 3 Zrotation Yrotation Xrotation
									End Site
									{
										OFFSET 0.000000 0.000000 0.000000
									}
								}
							}
						}
					}
				}
				JOINT RightShoulder
				{
					OFFSET 0.000000 0.000000 0.000000
					CHANNELS 3 Zrotation Yrotation Xrotation
					JOINT RightArm
					{
						OFFSET -2.700000 1.550000 -0.730000
						CHANNELS 3 Zrotation Yrotation Xrotation
						JOINT RightForeArm
						{
							OFFSET -5.450000 0.000000 0.000000
							CHANNELS 3 Zrotation Yrotation Xrotation
							JOINT RightHand
							{
								OFFSET -3.450000 0.000000 0.000000
								CHANNELS 3 Zrotation Yrotation Xrotation
								JOINT RightHandIndex1
								{
									OFFSET -0.750000 0.000000 0.000000
									CHANNELS 3 Zrotation Yrotation Xrotation
									End Site
									{
										OFFSET 0.000000 0.000000 0.000000
									}
								}
							}
						}
					}
				}
			}
		}
	}
}
MOTION
Frames: 7
Frame Time: 0.016667
-2.513410 17.234720 -2.094570 -19.368090 -74.096443 19.982968 -15.277605 12.117554 4.620806 3.675766 -1.220006 -51.276092 32.343270 -2.463903 57.401833 1.037892 10.349572 0.822602 0.428630 0.240200 0.274420 18.187334 -11.285834 2.241811 -12.781017 2.733218 -8.455684 8.040331 -6.122582 17.915534 -0.328964 -3.996458 2.897883 0.069880 0.080050 0.097130 -4.631096 0.281837 -8.054369 4.878956 5.640426 28.069628 -15.764054 10.322894 2.379480 2.972240 -13.507956 -16.538984 -39.733523 22.706082 32.804810 8.324420 5.301040 -6.926000 -10.613399 -2.530582 7.192208 -26.900247 16.641113 -3.551550 3.710588 1.066503 -0.488666 -3.520154 2.963730 0.497190 -0.209800 0.145500 0.147130 5.306131 16.822368 7.576272 -7.443664 -1.911753 -6.005517 -17.331770 40.587903 -2.941144 2.335257 -1.500913 -0.048600 0.139030 -0.098150 -0.000670 
-2.598520 17.224100 -2.051230 -25.690080 -77.820809 25.759619 -15.231706 12.291521 4.459130 5.360584 0.803528 -51.304880 29.482717 -0.018640 54.960044 1.032842 9.538495 1.088119 0.509590 0.429220 0.323180 18.206556 -11.406487 2.164748 -13.891456 3.379467 -8.293034 7.237607 -6.248784 20.839625 -0.399714 -4.175683 2.878852 0.096030 0.002810 0.068460 -4.425091 0.275210 -7.984952 3.220836 6.975740 28.237692 -15.391668 11.046609 1.860673 3.529795 -13.854758 -16.439886 -39.158384 22.134688 31.056175 5.840780 7.088240 -8.651030 -9.437957 -0.398770 6.703084 -28.857327 18.750600 -5.206422 7.533163 -1.883456 -0.216437 -3.437398 2.986366 0.412580 -0.241490 0.231870 0.216770 3.104768 15.749610 7.603183 -6.405003 -2.875687 -6.305175 -20.614225 41.595430 -4.302763 2.387379 -1.574914 0.061400 0.125630 -0.245400 0.065040 
-2.690850 17.196940 -1.961380 -40.088492 -81.926348 39.687058 -14.988529 12.511516 4.218979 7.432800 2.574125 -49.869949 25.990272 2.237247 48.277984 0.727330 8.248072 1.458082 0.550130 0.427970 0.357140 18.396677 -11.516355 2.128775 -16.977457 4.745156 -8.060683 7.243545 -6.735848 24.288741 -0.447035 -4.636294 2.649071 0.102130 -0.030370 0.091250 -4.232000 0.481108 -7.907177 2.330224 8.202419 28.513555 -15.271937 11.544207 0.601079 3.249460 -14.114163 -16.328633 -39.800474 22.749762 29.055304 6.467380 7.454460 -7.480910 -7.033206 1.960246 6.480935 -28.307234 21.550593 -6.550687 11.742877 -6.362721 -0.471937 -3.388093 3.134039 0.417480 -0.266230 0.226500 0.227260 1.336536 13.902780 7.528389 -7.155661 -6.482431 -6.080882 -26.051995 43.013054 -6.341073 2.437207 -1.714487 0.073290 0.052100 -0.276420 0.051980 
-2.776370 17.131710 -1.853020 -98.193931 -84.705936 98.983321 -15.144319 13.067398 4.224530 10.897616 4.958147 -49.692415 20.334385 5.302435 40.793117 0.527713 7.051155 1.865339 0.530290 0.452110 0.308710 18.261467 -10.919668 2.050859 -20.055577 6.804466 -10.220612 7.663074 -6.891896 26.807341 -0.434219 -4.801319 2.602868 0.085100 0.031610 0.135010 -4.192131 1.126573 -7.990614 2.399306 10.339430 26.687219 -16.495067 13.020203 -0.622210 3.374167 -14.151910 -15.782698 -38.286718 21.490001 27.825700 3.965300 8.122670 -5.461800 -5.177070 4.864940 5.322261 -23.369021 21.434781 -5.753572 11.462508 -7.315339 -0.419621 -3.458342 3.176844 0.302950 -0.178610 0.210090 0.283240 -1.137762 11.695395 7.520431 -7.183734 -9.778898 -5.367967 -28.881064 43.455891 -7.319168 2.481178 -1.863705 0.127790 0.025770 -0.311950 0.115690 
-2.885380 17.029520 -1.752790 -137.657537 -82.535823 139.766868 -15.819927 12.737018 4.204315 14.967529 6.744696 -48.577511 14.773809 7.127717 33.240698 0.411303 6.092935 2.160100 0.583870 0.556980 0.368210 17.668284 -10.810506 2.021807 -22.922522 8.189684 -11.997461 8.356874 -7.303114 27.990166 -0.439283 -5.064673 2.487630 0.119320 0.014770 0.189730 -4.774736 1.153006 -8.130772 2.841470 11.618934 23.028385 -16.968401 14.098679 -0.181676 3.359333 -13.664586 -14.569559 -35.816170 21.677978 28.687530 0.580450 10.953820 -4.546390 -4.662703 7.221863 4.136895 -18.356974 21.166145 -4.888048 13.297135 -8.873912 -0.423225 -3.515423 3.278282 0.202980 -0.112890 0.243020 0.314830 -2.474073 8.947188 6.900419 -8.881643 -10.755574 -3.841047 -28.625830 41.476363 -6.796216 2.565623 -2.018858 0.201750 -0.029890 -0.386310 0.140920 
-2.985430 16.901380 -1.635460 -149.255951 -77.624624 151.884299 -15.926366 12.180011 4.349701 20.582874 9.029962 -45.911536 9.534445 8.351075 25.820427 0.360878 5.720792 2.271174 0.599600 0.606050 0.367610 17.666470 -10.813639 1.922403 -24.289850 9.145824 -13.325296 7.654136 -7.163733 28.813998 -0.428751 -5.130772 2.454386 0.149150 0.040990 0.218560 -5.146636 1.431883 -8.384487 4.875034 11.849529 21.931928 -17.703433 14.126198 -1.666422 2.874337 -13.651153 -13.691015 -34.144946 22.128465 27.144175 -0.049430 12.617870 -5.375520 -2.176011 9.873482 3.476582 -14.579521 21.962386 -4.208234 11.929759 -8.591731 -0.286339 -3.572231 3.312386 0.163470 -0.068740 0.246420 0.334390 -4.362176 6.469608 6.618033 -10.367612 -9.655706 -2.343783 -27.614261 36.031998 -5.388995 2.652695 -2.090520 0.216460 -0.030150 -0.397940 0.157030 
-3.084580 16.752350 -1.526030 -152.557691 -74.389987 154.665858 -15.891294 11.773342 4.616371 25.230376 10.111372 -42.873405 5.619741 8.704710 20.165906 0.207589 5.819317 2.260329 0.535210 0.452870 0.431910 17.779274 -10.637846 1.838267 -27.030683 9.899393 -12.991699 8.626558 -7.802874 29.098296 -0.419517 -5.401244 2.299352 0.142310 0.059670 0.188270 -5.153010 1.325977 -8.631894 6.283138 11.187580 22.767442 -17.499176 13.299347 -3.224127 2.614509 -13.615713 -13.080801 -33.807379 22.400649 26.403379 -2.768100 14.123860 -6.202980 0.727161 12.383831 2.727289 -11.670217 21.084810 -3.441936 11.389843 -7.562944 -0.303293 -3.668549 3.176617 0.252160 -0.043010 0.192590 0.253590 -6.883950 4.171749 6.482717 -11.373027 -7.834334 -1.362300 -26.381963 29.640909 -3.907309 2.703346 -2.049033 0.075770 0.025860 -0.327510 0.044310 
